<svg width="588" height="352" viewBox="0 0 588 352" fill="none" xmlns="http://www.w3.org/2000/svg">
<path d="M586.941 283.935C586.941 288.284 585.034 292.614 581.234 296.897C577.429 301.186 571.767 305.374 564.389 309.398C549.633 317.443 528.212 324.722 501.651 330.848C448.547 343.096 375.13 350.681 294 350.681C212.87 350.681 139.453 343.096 86.3487 330.848C59.7878 324.722 38.3665 317.443 23.6112 309.398C16.233 305.374 10.5713 301.186 6.76552 296.897C2.96556 292.614 1.05946 288.284 1.05946 283.935C1.05946 279.586 2.96556 275.256 6.76552 270.973C10.5713 266.683 16.233 262.495 23.6112 258.472C38.3665 250.426 59.7878 243.147 86.3487 237.021C139.453 224.774 212.87 217.189 294 217.189C375.13 217.189 448.547 224.774 501.651 237.021C528.212 243.147 549.633 250.426 564.389 258.472C571.767 262.495 577.429 266.683 581.234 270.973C585.034 275.256 586.941 279.586 586.941 283.935Z" stroke="url(#paint0_linear_201_545)" stroke-width="2.11892"/>
<path d="M562.573 282.345C562.573 290.414 555.625 298.436 542.176 305.958C528.816 313.431 509.413 320.195 485.346 325.889C437.228 337.273 370.701 344.324 297.178 344.324C223.656 344.324 157.129 337.273 109.011 325.889C84.9436 320.195 65.541 313.431 52.1808 305.958C38.7321 298.436 31.7838 290.414 31.7838 282.345C31.7838 274.276 38.7321 266.255 52.1808 258.733C65.541 251.26 84.9436 244.496 109.011 238.802C157.129 227.418 223.656 220.367 297.178 220.367C370.701 220.367 437.228 227.418 485.346 238.802C509.413 244.496 528.816 251.26 542.176 258.733C555.625 266.255 562.573 274.276 562.573 282.345Z" stroke="url(#paint1_linear_201_545)" stroke-opacity="0.5" stroke-width="2.11892"/>
<path d="M531.849 280.756C531.849 288.036 525.767 295.289 513.938 302.107C502.187 308.88 485.114 315.015 463.924 320.181C421.561 330.509 362.981 336.908 298.238 336.908C233.494 336.908 174.915 330.509 132.552 320.181C111.362 315.015 94.2886 308.88 82.5382 302.107C70.7092 295.289 64.6271 288.036 64.6271 280.756C64.6271 273.476 70.7092 266.223 82.5382 259.405C94.2886 252.632 111.362 246.497 132.552 241.331C174.915 231.004 233.494 224.605 298.238 224.605C362.981 224.605 421.561 231.004 463.924 241.331C485.114 246.497 502.187 252.632 513.938 259.405C525.767 266.223 531.849 273.476 531.849 280.756Z" stroke="url(#paint2_linear_201_545)" stroke-opacity="0.5" stroke-width="2.11892"/>
<path d="M506.422 275.989C506.422 282.937 500.988 289.838 490.441 296.325C479.953 302.774 464.707 308.62 445.773 313.545C407.922 323.39 355.572 329.492 297.708 329.492C239.844 329.492 187.495 323.39 149.643 313.545C130.709 308.62 115.463 302.774 104.975 296.325C94.4279 289.838 88.9946 282.937 88.9946 275.989C88.9946 269.041 94.4279 262.139 104.975 255.653C115.463 249.204 130.709 243.358 149.643 238.433C187.495 228.588 239.844 222.486 297.708 222.486C355.572 222.486 407.922 228.588 445.773 238.433C464.707 243.358 479.953 249.204 490.441 255.653C500.988 262.139 506.422 269.041 506.422 275.989Z" stroke="url(#paint3_linear_201_545)" stroke-opacity="0.5" stroke-width="2.11892"/>
<ellipse cx="291.882" cy="263.805" rx="174.281" ry="55.0919" fill="#87ED63" fill-opacity="0.5"/>
<ellipse cx="291.882" cy="239.438" rx="174.281" ry="55.0919" fill="#87ED63" fill-opacity="0.5"/>
<path d="M32.8438 0H533.968L460.116 284.995H122.925L32.8438 0Z" fill="url(#paint4_linear_201_545)" fill-opacity="0.2"/>
<path d="M72.0437 0H492.649L432.786 284.995H144.449L72.0437 0Z" fill="url(#paint5_linear_201_545)" fill-opacity="0.3"/>
<defs>
<linearGradient id="paint0_linear_201_545" x1="294" y1="216.129" x2="294" y2="351.74" gradientUnits="userSpaceOnUse">
<stop stop-color="#87ED63"/>
<stop offset="0.447917" stop-color="#F09C1F"/>
<stop offset="1" stop-color="#87ED63"/>
</linearGradient>
<linearGradient id="paint1_linear_201_545" x1="297.178" y1="219.308" x2="297.178" y2="345.383" gradientUnits="userSpaceOnUse">
<stop stop-color="#87ED63"/>
<stop offset="0.510417" stop-color="#F09C1F"/>
<stop offset="1" stop-color="#87ED63"/>
</linearGradient>
<linearGradient id="paint2_linear_201_545" x1="298.238" y1="223.545" x2="298.238" y2="337.967" gradientUnits="userSpaceOnUse">
<stop stop-color="#87ED63" stop-opacity="0"/>
<stop offset="0.557292" stop-color="#F09C1F"/>
<stop offset="0.989583" stop-color="#87ED63"/>
</linearGradient>
<linearGradient id="paint3_linear_201_545" x1="297.708" y1="221.427" x2="297.708" y2="330.551" gradientUnits="userSpaceOnUse">
<stop stop-color="#87ED63" stop-opacity="0"/>
<stop offset="0.557292" stop-color="#F09C1F"/>
<stop offset="0.989583" stop-color="#87ED63"/>
</linearGradient>
<linearGradient id="paint4_linear_201_545" x1="291.521" y1="0" x2="291.521" y2="284.995" gradientUnits="userSpaceOnUse">
<stop offset="0.0260417" stop-color="#87ED63" stop-opacity="0"/>
<stop offset="0.473958" stop-color="#87ED63"/>
<stop offset="0.96875" stop-color="#87ED63" stop-opacity="0"/>
</linearGradient>
<linearGradient id="paint5_linear_201_545" x1="285.525" y1="9.98036" x2="288.913" y2="284.991" gradientUnits="userSpaceOnUse">
<stop offset="0.0260417" stop-color="#87ED63" stop-opacity="0"/>
<stop offset="0.473958" stop-color="#87ED63"/>
<stop offset="0.96875" stop-color="#87ED63" stop-opacity="0"/>
</linearGradient>
</defs>
</svg>
