<svg width="88" height="65" viewBox="0 0 88 65" fill="none" xmlns="http://www.w3.org/2000/svg">
<path fill-rule="evenodd" clip-rule="evenodd" d="M24.2261 25.3477C26.5285 33.9221 34.3554 40.2344 43.6566 40.2344C52.7307 40.2344 60.4016 34.2266 62.9087 25.9717H50.65C49.6342 30.452 45.6278 33.7968 40.8402 33.7968C35.8328 33.7968 31.6801 30.1378 30.9097 25.3477H42.4496V13.8076C47.2398 14.5779 50.8988 18.7307 50.8988 23.7382C50.8988 23.8932 50.8953 24.0475 50.8884 24.2009H63.3591C63.631 22.8822 63.7738 21.5164 63.7738 20.1172C63.7738 9.00678 54.767 0 43.6566 0C43.2514 0 42.8489 0.0119832 42.4496 0.0356145V13.8076C41.9256 13.7234 41.388 13.6796 40.8402 13.6796C35.285 13.6796 30.7816 18.183 30.7816 23.7382C30.7816 24.286 30.8254 24.8236 30.9097 25.3477H24.2261Z" fill="url(#paint0_linear_1_368)"/>
<path d="M11.0639 48.7426C11.3661 48.8937 11.6731 49.1345 11.9847 49.4651C12.2964 49.7956 12.5231 50.1262 12.6647 50.4567L9.37813 59.0132L8.85397 59.1832C8.66509 59.0888 8.4526 58.9707 8.21649 58.829C7.98038 58.6779 7.75372 58.5174 7.5365 58.3474C7.32873 58.1679 7.15401 57.9932 7.01235 57.8232L6.34653 54.6641L4.8449 59.0132L4.32074 59.1832C4.13186 59.0888 3.91936 58.9707 3.68325 58.829C3.44715 58.6779 3.22049 58.5174 3.00327 58.3474C2.7955 58.1679 2.62078 57.9932 2.47911 57.8232L1.52997 53.29L0.212495 49.3659L0.793316 48.7426C1.0672 48.7898 1.39303 48.8984 1.77079 49.0684C2.14856 49.2384 2.4555 49.4462 2.69161 49.6917L3.13077 53.0775L4.06575 57.2991L5.70904 52.7375L5.05739 49.2101L5.96404 48.7426C6.43625 48.9315 6.84235 49.2148 7.18234 49.5926C7.53178 49.9703 7.79622 50.3765 7.97566 50.8109L7.52234 52.1142L7.664 53.0775L8.59898 57.2849L10.2281 52.4967V49.0118L11.0639 48.7426ZM19.3075 57.1291C19.3925 57.2424 19.4775 57.403 19.5625 57.6107C19.6475 57.8185 19.6995 58.031 19.7184 58.2482L17.8059 59.1832C17.5792 59.1171 17.3337 59.0085 17.0692 58.8574C16.8143 58.7063 16.6206 58.5693 16.4884 58.4466L16.5451 57.4124C16.0729 57.9318 15.5959 58.3474 15.1143 58.659C14.6326 58.9707 14.2124 59.1454 13.8535 59.1832C13.7118 59.1077 13.5371 58.9754 13.3293 58.7865C13.131 58.5882 12.9421 58.371 12.7627 58.1349C12.5927 57.8893 12.4793 57.658 12.4227 57.4407L12.7202 53.5308C12.8618 53.2286 13.0649 52.9264 13.3293 52.6242C13.5938 52.3125 13.8582 52.0622 14.1226 51.8734C14.8026 51.7506 15.4637 51.6798 16.1059 51.6609C16.7481 51.6325 17.4565 51.7411 18.2309 51.9867C18.3348 52.1 18.4292 52.237 18.5142 52.3975C18.5992 52.5581 18.67 52.7139 18.7267 52.865C18.7928 53.0067 18.8306 53.1153 18.84 53.1908C18.7456 53.6064 18.6181 54.0125 18.4575 54.4091C18.3064 54.8058 18.1223 55.1836 17.9051 55.5425L18.0751 57.4407L19.3075 57.1291ZM14.3776 57.4549C14.7176 57.3321 15.0907 57.0677 15.4968 56.6616C15.9123 56.2555 16.2901 55.7738 16.6301 55.2166L16.6868 53.0775C16.2995 53.0681 15.9265 53.0869 15.5676 53.1342C15.2087 53.1814 14.8687 53.2522 14.5476 53.3467C14.3776 53.8189 14.2549 54.3005 14.1793 54.7916C14.1132 55.2733 14.0801 55.7219 14.0801 56.1374C14.0896 56.5435 14.1226 56.8694 14.1793 57.1149C14.236 57.3605 14.3021 57.4738 14.3776 57.4549ZM23.5563 57.1291C23.6319 57.2424 23.7122 57.403 23.7972 57.6107C23.8916 57.8185 23.9483 58.031 23.9672 58.2482L22.0547 59.1832C21.7053 59.0227 21.3983 58.829 21.1339 58.6024C20.8694 58.3757 20.6711 58.1396 20.5389 57.8941L20.8364 53.2475L20.9497 49.1534L19.8447 49.4367C19.7786 49.3234 19.6984 49.1676 19.6039 48.9693C19.5095 48.7615 19.4528 48.549 19.4339 48.3318L21.3464 47.3968C21.4408 47.4062 21.5872 47.4535 21.7855 47.5385C21.9933 47.6235 22.1964 47.7226 22.3947 47.836C22.593 47.9493 22.7347 48.0484 22.8197 48.1334L22.2105 53.375L22.3239 57.4549L23.5563 57.1291ZM27.8726 57.1291C27.9482 57.2424 28.0285 57.403 28.1135 57.6107C28.2079 57.8185 28.2646 58.031 28.2835 58.2482L26.371 59.1832C26.0216 59.0227 25.7146 58.829 25.4502 58.6024C25.1858 58.3757 24.9874 58.1396 24.8552 57.8941L25.1527 53.2475L25.266 49.1534L24.1611 49.4367C24.0949 49.3234 24.0147 49.1676 23.9202 48.9693C23.8258 48.7615 23.7691 48.549 23.7502 48.3318L25.6627 47.3968C25.7571 47.4062 25.9035 47.4535 26.1018 47.5385C26.3096 47.6235 26.5127 47.7226 26.711 47.836C26.9093 47.9493 27.051 48.0484 27.136 48.1334L26.5268 53.375L26.6402 57.4549L27.8726 57.1291ZM34.2022 56.7324C34.2684 56.8174 34.3392 56.9827 34.4147 57.2282C34.4997 57.4738 34.5375 57.691 34.5281 57.8799C34.122 58.0499 33.697 58.2199 33.2531 58.3899C32.8092 58.5504 32.3937 58.7015 32.0065 58.8432C31.6287 58.9849 31.317 59.0982 31.0715 59.1832C30.7787 59.1077 30.4718 58.9896 30.1507 58.829C29.8296 58.6685 29.5368 58.4796 29.2723 58.2624C29.0079 58.0357 28.819 57.8091 28.7057 57.5824L28.904 53.2475C29.0362 53.0114 29.2204 52.7753 29.4565 52.5392C29.7021 52.2936 29.9429 52.0717 30.179 51.8734C30.7268 51.7506 31.2604 51.675 31.7798 51.6467C32.3087 51.6184 32.8139 51.642 33.2956 51.7175C33.3806 51.7648 33.4939 51.8686 33.6356 52.0292C33.7867 52.1803 33.9331 52.3361 34.0747 52.4967C34.2164 52.6572 34.3108 52.7753 34.3581 52.8508L34.3014 54.9616C34.0559 55.1411 33.7253 55.33 33.3098 55.5283C32.8942 55.7266 32.4362 55.9202 31.9356 56.1091C31.4351 56.2885 30.9345 56.4491 30.434 56.5908C30.4434 56.7702 30.4576 56.9449 30.4765 57.1149C30.4954 57.2849 30.519 57.4502 30.5473 57.6107L34.2022 56.7324ZM32.7856 53.1767C32.4456 53.1294 32.1151 53.1153 31.794 53.1342C31.4729 53.1531 31.1376 53.2097 30.7881 53.3042C30.6937 53.5969 30.6182 53.9133 30.5615 54.2533C30.5048 54.5933 30.4623 54.938 30.434 55.2875C30.8401 55.1552 31.2651 54.9852 31.709 54.7775C32.1623 54.5602 32.5731 54.3336 32.9414 54.0975L32.7856 53.1767ZM40.5986 56.9733C40.6647 57.0583 40.7355 57.2094 40.8111 57.4266C40.8866 57.6438 40.9197 57.8468 40.9102 58.0357C40.6552 58.1868 40.3625 58.3379 40.0319 58.4891C39.7014 58.6402 39.3803 58.7771 39.0686 58.8999C38.7664 59.0227 38.5114 59.1171 38.3036 59.1832C38.0581 59.1077 37.7889 58.9896 37.4961 58.829C37.2034 58.6685 36.9389 58.4796 36.7028 58.2624C36.4762 58.0357 36.3298 57.8091 36.2637 57.5824L36.5753 53.5308L35.4845 53.7433L35.1304 52.78L36.5895 51.5192L36.4903 50.3859C36.6509 50.2159 36.8445 50.0506 37.0711 49.8901C37.2978 49.7201 37.515 49.5926 37.7228 49.5076L38.247 49.8759L38.1903 51.845C38.5775 51.8073 38.9742 51.7836 39.3803 51.7742C39.7958 51.7648 40.2066 51.7789 40.6127 51.8167L40.7544 52.95L40.3152 53.4033C39.5597 53.3467 38.8372 53.3325 38.1478 53.3608C38.0817 53.7858 38.0345 54.2486 38.0061 54.7491C37.9778 55.2497 37.9778 55.7455 38.0061 56.2366C38.0345 56.7183 38.1006 57.1621 38.2045 57.5682L40.5986 56.9733ZM45.9946 50.9667C46.0985 51.2973 46.3016 51.6042 46.6038 51.8875C46.906 52.1709 47.2602 52.4542 47.6663 52.7375C48.0818 53.0114 48.5068 53.3089 48.9412 53.63C49.3851 53.9511 49.8007 54.3194 50.1879 54.735C50.5845 55.1505 50.9056 55.6369 51.1512 56.1941C51.0945 56.5624 50.9576 56.9355 50.7404 57.3132C50.5231 57.6816 50.2634 58.0168 49.9612 58.3191C49.659 58.6213 49.3473 58.8574 49.0262 59.0274C48.6862 59.084 48.2943 59.1218 47.8504 59.1407C47.4065 59.169 46.9438 59.1596 46.4621 59.1124C45.9899 59.0652 45.5319 58.9707 45.088 58.829C44.9558 58.7252 44.7999 58.5693 44.6205 58.3616C44.4411 58.1538 44.2852 57.9602 44.153 57.7807L44.3797 55.5991C44.5591 55.5424 44.7669 55.5047 45.003 55.4858C45.2485 55.4669 45.4658 55.4858 45.6546 55.5425L45.7821 57.3841C46.1599 57.4407 46.5707 57.4596 47.0146 57.4407C47.4679 57.4219 47.9118 57.3699 48.3462 57.2849C48.7901 57.1905 49.1726 57.0583 49.4937 56.8883C49.3048 56.5105 49.0357 56.1658 48.6862 55.8541C48.3368 55.533 47.9496 55.2261 47.5246 54.9333C47.109 54.6311 46.6935 54.3241 46.278 54.0125C45.8624 53.7008 45.4846 53.3703 45.1446 53.0208C44.8141 52.6714 44.5638 52.2795 44.3938 51.845C44.4599 51.4767 44.5733 51.1131 44.7338 50.7542C44.9038 50.3859 45.0974 50.0553 45.3146 49.7626C45.5413 49.4604 45.7632 49.2337 45.9805 49.0826C47.3499 48.6954 48.7429 48.6434 50.1595 48.9268C50.254 48.9834 50.3484 49.0826 50.4429 49.2243C50.5373 49.3565 50.627 49.4981 50.712 49.6492C50.8065 49.8004 50.882 49.9184 50.9387 50.0034L50.7262 51.93C50.5468 51.9961 50.3437 52.0292 50.117 52.0292C49.8998 52.0292 49.6826 52.0056 49.4654 51.9584L49.3379 50.4284C49.0168 50.4001 48.6579 50.4001 48.2612 50.4284C47.8646 50.4473 47.4679 50.4992 47.0713 50.5842C46.6746 50.6692 46.3157 50.7967 45.9946 50.9667ZM57.3332 56.7324C57.3994 56.8174 57.4702 56.9827 57.5457 57.2282C57.6307 57.4738 57.6685 57.691 57.6591 57.8799C57.253 58.0499 56.828 58.2199 56.3841 58.3899C55.9402 58.5504 55.5247 58.7015 55.1375 58.8432C54.7597 58.9849 54.448 59.0982 54.2025 59.1832C53.9097 59.1077 53.6028 58.9896 53.2817 58.829C52.9606 58.6685 52.6678 58.4796 52.4034 58.2624C52.1389 58.0357 51.95 57.8091 51.8367 57.5824L52.035 53.2475C52.1672 53.0114 52.3514 52.7753 52.5875 52.5392C52.8331 52.2936 53.0739 52.0717 53.31 51.8734C53.8578 51.7506 54.3914 51.675 54.9108 51.6467C55.4397 51.6184 55.9449 51.642 56.4266 51.7175C56.5116 51.7648 56.6249 51.8686 56.7666 52.0292C56.9177 52.1803 57.0641 52.3361 57.2058 52.4967C57.3474 52.6572 57.4419 52.7753 57.4891 52.8508L57.4324 54.9616C57.1869 55.1411 56.8563 55.33 56.4408 55.5283C56.0252 55.7266 55.5672 55.9202 55.0666 56.1091C54.5661 56.2885 54.0655 56.4491 53.565 56.5908C53.5744 56.7702 53.5886 56.9449 53.6075 57.1149C53.6264 57.2849 53.65 57.4502 53.6783 57.6107L57.3332 56.7324ZM55.9166 53.1767C55.5766 53.1294 55.2461 53.1153 54.925 53.1342C54.6039 53.1531 54.2686 53.2097 53.9192 53.3042C53.8247 53.5969 53.7492 53.9133 53.6925 54.2533C53.6358 54.5933 53.5933 54.938 53.565 55.2875C53.9711 55.1552 54.3961 54.9852 54.84 54.7775C55.2933 54.5602 55.7041 54.3336 56.0724 54.0975L55.9166 53.1767ZM66.3454 57.1291C66.4304 57.2424 66.5154 57.403 66.6004 57.6107C66.6854 57.8185 66.7373 58.031 66.7562 58.2482L64.8437 59.1832C64.5982 59.0604 64.3385 58.8999 64.0646 58.7015C63.7907 58.5032 63.5735 58.286 63.4129 58.0499C63.5829 57.4549 63.6963 56.8552 63.7529 56.2508C63.8096 55.6463 63.8238 55.0844 63.7954 54.565C63.7765 54.0361 63.7246 53.6064 63.6396 53.2758C63.4035 53.3797 63.1485 53.5639 62.8746 53.8283C62.6102 54.0833 62.3457 54.3903 62.0813 54.7491C61.8169 55.108 61.5713 55.4952 61.3447 55.9108L61.2597 58.9565C61.0519 59.0132 60.8111 59.0415 60.5372 59.0415C60.2633 59.0415 60.0177 59.0132 59.8005 58.9565C59.5077 58.6449 59.2669 58.2907 59.078 57.8941C59.163 57.4691 59.2764 57.0583 59.418 56.6616C59.5691 56.2649 59.7344 55.8919 59.9138 55.5425L59.928 55.33L59.758 53.375L58.5255 53.6867C58.4594 53.5733 58.3792 53.4175 58.2847 53.2192C58.1903 53.0114 58.1336 52.7989 58.1147 52.5817L60.0272 51.6467C60.1216 51.6561 60.2538 51.7081 60.4238 51.8025C60.6033 51.897 60.778 52.0009 60.948 52.1142C61.1274 52.2181 61.2597 52.3078 61.3447 52.3834L61.288 53.5733C61.8169 52.9689 62.3457 52.4967 62.8746 52.1567C63.4129 51.8167 63.8568 51.6467 64.2063 51.6467C64.3479 51.7223 64.5038 51.8545 64.6737 52.0434C64.8437 52.2322 64.9996 52.4447 65.1412 52.6808C65.2829 52.9075 65.3821 53.1342 65.4387 53.3608L65.1979 57.4266L66.3454 57.1291ZM72.0855 56.9733C72.1516 57.0583 72.2225 57.2094 72.298 57.4266C72.3736 57.6438 72.4066 57.8468 72.3972 58.0357C72.1422 58.1868 71.8494 58.3379 71.5189 58.4891C71.1883 58.6402 70.8672 58.7771 70.5556 58.8999C70.2533 59.0227 69.9983 59.1171 69.7906 59.1832C69.545 59.1077 69.2759 58.9896 68.9831 58.829C68.6903 58.6685 68.4259 58.4796 68.1898 58.2624C67.9631 58.0357 67.8167 57.8091 67.7506 57.5824L68.0623 53.5308L66.9715 53.7433L66.6173 52.78L68.0764 51.5192L67.9773 50.3859C68.1378 50.2159 68.3314 50.0506 68.5581 49.8901C68.7848 49.7201 69.002 49.5926 69.2097 49.5076L69.7339 49.8759L69.6772 51.845C70.0645 51.8073 70.4611 51.7836 70.8672 51.7742C71.2828 51.7648 71.6936 51.7789 72.0997 51.8167L72.2413 52.95L71.8022 53.4033C71.0467 53.3467 70.3242 53.3325 69.6347 53.3608C69.5686 53.7858 69.5214 54.2486 69.4931 54.7491C69.4647 55.2497 69.4647 55.7455 69.4931 56.2366C69.5214 56.7183 69.5875 57.1621 69.6914 57.5682L72.0855 56.9733ZM77.7888 51.6467C78.006 51.76 78.2138 51.9725 78.4121 52.2842C78.6199 52.5864 78.7663 52.9028 78.8513 53.2333L78.7238 55.0041C78.5632 55.1175 78.3602 55.2025 78.1146 55.2591C77.8691 55.3063 77.6424 55.3347 77.4347 55.3441L77.0947 55.0183C77.1419 54.6689 77.1702 54.3619 77.1797 54.0975C77.1985 53.8236 77.1891 53.5828 77.1513 53.375C76.8586 53.5922 76.5847 53.9086 76.3297 54.3241C76.0841 54.7302 75.8575 55.1836 75.6497 55.6841L75.6922 58.9565C75.4844 59.0132 75.2436 59.0415 74.9697 59.0415C74.6958 59.0415 74.4503 59.0132 74.2331 58.9565C73.9403 58.6449 73.6995 58.2907 73.5106 57.8941C73.5767 57.5824 73.6711 57.2519 73.7939 56.9024C73.9167 56.5435 74.0583 56.1894 74.2189 55.8399V55.33L74.0489 53.375L72.8164 53.6867C72.7503 53.5733 72.67 53.4175 72.5756 53.2192C72.4811 53.0114 72.4245 52.7989 72.4056 52.5817L74.3181 51.6467C74.4125 51.6561 74.5447 51.7081 74.7147 51.8025C74.8942 51.897 75.0689 52.0009 75.2389 52.1142C75.4183 52.2181 75.5505 52.3078 75.6355 52.3834L75.5789 53.5025C75.9661 52.9642 76.358 52.5203 76.7547 52.1709C77.1513 51.8214 77.496 51.6467 77.7888 51.6467ZM86.8072 52.9358C86.7789 53.2758 86.6986 53.6347 86.5664 54.0125C86.4342 54.3903 86.2595 54.768 86.0423 55.1458L86.2406 59.8065C86.1462 60.0143 86.0045 60.2551 85.8156 60.529C85.6362 60.8029 85.4331 61.0673 85.2064 61.3223C84.9892 61.5773 84.772 61.7804 84.5548 61.9315C84.1298 62.0448 83.667 62.1204 83.1665 62.1581C82.6754 62.2054 82.1796 62.2148 81.679 62.1865C81.1879 62.1581 80.7299 62.1062 80.3049 62.0306C80.2954 61.8795 80.3002 61.6907 80.3191 61.464C80.3379 61.2468 80.3663 61.0296 80.4041 60.8123C80.4513 60.5951 80.5079 60.4204 80.574 60.2882C80.8857 60.4015 81.2493 60.4865 81.6649 60.5432C82.0804 60.6093 82.5007 60.6423 82.9257 60.6423C83.3601 60.6423 83.7568 60.6187 84.1156 60.5715C84.3329 60.071 84.4934 59.5421 84.5973 58.9849C84.7106 58.4277 84.7767 57.7571 84.7956 56.9733C84.4462 57.3888 84.0826 57.7666 83.7048 58.1066C83.3365 58.4371 82.9918 58.7015 82.6707 58.8999C82.3496 59.0888 82.0757 59.1832 81.849 59.1832C81.7074 59.1077 81.5185 58.9754 81.2824 58.7865C81.0557 58.5977 80.8432 58.3852 80.6449 58.1491C80.4466 57.913 80.3191 57.6863 80.2624 57.4691L80.5882 53.4317L79.5399 53.7008C79.4549 53.5875 79.3699 53.4269 79.2849 53.2192C79.1999 53.0114 79.148 52.7989 79.1291 52.5817L81.0415 51.6467C81.2871 51.7695 81.5468 51.93 81.8207 52.1284C82.104 52.3267 82.3212 52.5439 82.4723 52.78C82.3023 53.3656 82.1796 53.9653 82.104 54.5791C82.0379 55.1836 82.0096 55.7502 82.019 56.2791C82.0285 56.7985 82.0662 57.2282 82.1323 57.5682C82.3968 57.4549 82.6754 57.2613 82.9682 56.9874C83.2704 56.7041 83.5632 56.3641 83.8465 55.9674C84.1393 55.5708 84.399 55.1458 84.6256 54.6925L84.484 52.015C84.7012 51.9584 84.9703 51.9064 85.2914 51.8592C85.6126 51.812 85.877 51.8167 86.0848 51.8734C86.387 52.185 86.6278 52.5392 86.8072 52.9358Z" fill="white"/>
<defs>
<linearGradient id="paint0_linear_1_368" x1="44" y1="0" x2="43.7048" y2="48.1066" gradientUnits="userSpaceOnUse">
<stop stop-color="#27B63E"/>
<stop offset="0.515625" stop-color="#F0AC27"/>
<stop offset="1" stop-color="#27B63E"/>
</linearGradient>
</defs>
</svg>
